<?xml version="1.0" standalone="no"?>
<!DOCTYPE svg PUBLIC "-//W3C//DTD SVG 20010904//EN"
 "http://www.w3.org/TR/2001/REC-SVG-20010904/DTD/svg10.dtd">
<svg version="1.0" xmlns="http://www.w3.org/2000/svg"
 width="500.000000pt" height="278.000000pt" viewBox="0 0 500.000000 278.000000"
 preserveAspectRatio="xMidYMid meet">

<g transform="translate(0.000000,278.000000) scale(0.100000,-0.100000)"
fill="#000000" stroke="none">
<path d="M3805 2476 c-34 -15 -92 -76 -106 -113 -12 -33 -12 -120 2 -144 8
-16 5 -28 -12 -56 l-22 -35 39 6 c31 5 50 1 88 -19 138 -70 295 21 296 173 0
115 -87 202 -202 202 -29 -1 -67 -7 -83 -14z m143 -91 c8 -7 -13 -35 -26 -35
-14 0 -13 -2 2 -13 19 -14 13 -47 -10 -47 -9 0 -14 -17 -16 -52 -3 -45 -6 -53
-23 -53 -18 0 -20 7 -20 58 0 39 -4 57 -12 57 -7 0 -13 9 -13 20 0 11 7 20 15
20 8 0 15 6 15 14 0 31 62 53 88 31z"/>
<path d="M2430 2169 c-42 -17 -79 -60 -97 -113 -15 -41 -18 -78 -16 -194 3
-137 2 -145 -23 -195 -26 -49 -27 -58 -29 -252 -3 -176 -1 -205 15 -242 11
-25 26 -43 35 -43 9 0 14 4 11 9 -3 5 11 3 32 -5 20 -7 58 -13 85 -14 46 0 47
0 48 33 0 17 3 26 6 19 5 -13 34 46 70 143 24 65 11 127 -42 205 -44 64 -45
67 -45 145 0 79 -1 81 -41 130 -41 50 -41 50 -33 110 4 33 8 70 9 82 1 14 18
35 43 53 23 16 44 41 48 55 l6 26 22 -20 c12 -12 36 -23 52 -24 43 -5 73 -24
79 -50 9 -38 24 -169 20 -181 -2 -6 -6 -24 -10 -40 -3 -16 -19 -41 -36 -57
-26 -24 -28 -31 -21 -65 6 -30 13 -39 36 -45 38 -11 41 -8 55 46 9 35 9 60 -1
105 -9 46 -9 70 0 110 15 64 8 110 -26 180 -38 76 -67 94 -155 97 -40 2 -83
-2 -97 -8z"/>
<path d="M2608 2043 c6 -2 18 -2 25 0 6 3 1 5 -13 5 -14 0 -19 -2 -12 -5z"/>
<path d="M2465 2010 c-7 -12 2 -12 30 0 19 8 19 9 -2 9 -12 1 -25 -3 -28 -9z"/>
<path d="M2610 1970 c0 -5 5 -10 10 -10 6 0 10 5 10 10 0 6 -4 10 -10 10 -5 0
-10 -4 -10 -10z"/>
<path d="M2490 1949 c0 -5 5 -7 10 -4 6 3 10 8 10 11 0 2 -4 4 -10 4 -5 0 -10
-5 -10 -11z"/>
<path d="M2545 1850 c3 -5 14 -10 23 -10 15 0 15 2 2 10 -20 13 -33 13 -25 0z"/>
<path d="M3904 1555 c-11 -8 -26 -15 -35 -15 -25 0 -79 -55 -79 -79 0 -11 -7
-24 -15 -29 -11 -6 -17 -26 -18 -68 -2 -53 0 -60 21 -69 12 -5 22 -13 22 -17
0 -18 35 -39 56 -34 29 8 28 17 5 -119 -10 -60 -18 -111 -16 -113 1 -1 31 33
66 77 35 44 68 80 72 80 5 1 -10 -32 -32 -73 -50 -90 -66 -161 -51 -232 17
-82 19 -82 177 -106 155 -23 173 -20 173 29 0 33 -35 133 -80 229 -33 72 -43
85 -86 109 -52 29 -89 69 -79 85 3 6 21 10 38 10 18 0 43 7 57 15 14 8 35 19
47 24 18 9 21 16 16 53 -3 24 -12 50 -20 59 -8 10 -12 26 -8 41 4 17 0 29 -14
42 -12 11 -21 24 -21 31 0 19 -81 66 -109 64 -14 -2 -36 2 -47 9 -17 9 -25 8
-40 -3z m128 -260 c0 -5 -5 -11 -11 -13 -6 -2 -11 4 -11 13 0 9 5 15 11 13 6
-2 11 -8 11 -13z m73 -415 c9 -25 19 -50 22 -56 4 -11 -93 -51 -102 -42 -4 3
23 97 41 147 6 19 17 6 39 -49z"/>
<path d="M3580 1394 c0 -20 -7 -32 -22 -39 -37 -17 -45 -41 -25 -74 10 -17 13
-31 7 -33 -13 -4 -30 -106 -30 -179 0 -74 12 -84 93 -75 34 3 75 9 91 13 l29
6 -5 -102 c-4 -88 -3 -101 11 -99 10 2 19 24 27 63 7 33 33 117 57 187 38 107
42 126 27 118 -10 -6 -30 -10 -44 -10 -13 0 -59 -13 -101 -29 -53 -21 -77 -26
-80 -18 -2 7 -8 75 -15 152 -10 129 -20 187 -20 119z"/>
<path d="M2751 1374 c1 -21 5 -50 9 -64 5 -16 6 -2 3 35 -7 69 -13 86 -12 29z"/>
<path d="M1260 1299 c-19 -17 -33 -36 -32 -42 2 -7 10 -72 18 -146 8 -74 15
-135 17 -136 1 -2 36 3 77 9 66 10 75 14 81 36 7 24 7 24 8 2 1 -22 4 -22 54
-16 28 4 53 8 55 9 2 1 -6 27 -18 56 -11 30 -20 65 -20 79 -1 14 -11 45 -23
69 -19 39 -29 47 -74 62 -29 10 -63 25 -75 33 -29 20 -27 21 -68 -15z m60 -2
c0 -2 -15 -18 -34 -36 -26 -26 -35 -29 -39 -17 -4 9 -1 13 6 10 7 -2 24 7 37
21 22 23 30 29 30 22z"/>
<path d="M1165 1279 c-8 -11 25 -40 37 -33 5 3 8 -2 8 -11 0 -13 -5 -12 -29 6
l-29 21 -54 -28 c-69 -38 -84 -70 -92 -201 l-6 -101 43 5 c23 3 44 7 46 9 2 2
4 29 4 61 l-1 58 10 -55 c6 -30 11 -56 13 -58 1 -2 32 2 68 8 64 11 66 13 62
38 -2 15 -9 74 -15 132 -6 58 -13 113 -16 123 -7 23 -40 41 -49 26z"/>
<path d="M2770 1264 c0 -8 5 -12 10 -9 6 4 8 11 5 16 -9 14 -15 11 -15 -7z"/>
<path d="M3860 813 c8 -3 23 -12 33 -21 21 -19 23 -9 1 12 -8 9 -23 16 -32 15
-14 0 -14 -2 -2 -6z"/>
</g>
</svg>
