<svg xmlns="http://www.w3.org/2000/svg" width="24" height="24" fill="none" id="facebook-story"><path fill="#000" fill-rule="evenodd" d="M1.5 4A2.5 2.5 0 0 1 4 1.5h4.5A2.5 2.5 0 0 1 11 4v18a.5.5 0 0 1-.5.5H9a.5.5 0 0 1-.416-.223L6.732 19.5H4A2.5 2.5 0 0 1 1.5 17V4zM4 2.5A1.5 1.5 0 0 0 2.5 4v13A1.5 1.5 0 0 0 4 18.5h3a.5.5 0 0 1 .416.223L9.268 21.5H10V4a1.5 1.5 0 0 0-1.5-1.5H4zM22.5 4A2.5 2.5 0 0 0 20 1.5h-4.5A2.5 2.5 0 0 0 13 4v18a.5.5 0 0 0 .5.5H15a.5.5 0 0 0 .416-.223l1.852-2.777H20a2.5 2.5 0 0 0 2.5-2.5V4zM20 2.5A1.5 1.5 0 0 1 21.5 4v13a1.5 1.5 0 0 1-1.5 1.5h-3a.5.5 0 0 0-.416.223L14.732 21.5H14V4a1.5 1.5 0 0 1 1.5-1.5H20z" clip-rule="evenodd"></path></svg>